<?xml version="1.0" standalone="no"?>
<!DOCTYPE svg PUBLIC "-//W3C//DTD SVG 20010904//EN"
 "http://www.w3.org/TR/2001/REC-SVG-20010904/DTD/svg10.dtd">
<svg version="1.0" xmlns="http://www.w3.org/2000/svg"
 width="512.000000pt" height="512.000000pt" viewBox="0 0 512.000000 512.000000"
 preserveAspectRatio="xMidYMid meet">
<metadata>
Created by potrace 1.11, written by Peter Selinger 2001-2013
</metadata>
<g transform="translate(0.000000,512.000000) scale(0.100000,-0.100000)"
fill="#000000" stroke="none">
<path d="M303 4825 c-154 -42 -261 -155 -293 -311 -7 -33 -10 -293 -8 -765 l3
-714 23 -58 c44 -108 121 -184 233 -230 54 -22 56 -22 835 -25 l782 -3 -24
-73 c-91 -287 -60 -653 78 -931 131 -263 320 -455 580 -590 359 -186 788 -191
1156 -12 l84 40 416 -415 c229 -228 433 -424 452 -436 59 -35 150 -48 222 -33
80 16 124 39 177 92 53 53 76 97 92 177 15 73 2 163 -33 222 -12 19 -105 119
-207 222 -202 204 -219 215 -281 183 l-33 -17 -44 45 -45 44 16 31 c23 44 20
76 -9 110 -31 37 -68 45 -118 25 l-39 -16 -76 76 -75 75 31 49 c121 190 185
399 198 643 7 128 -12 293 -46 403 -11 34 -20 67 -20 74 0 8 65 12 237 15 220
3 242 6 296 27 110 44 195 132 234 245 17 47 18 105 18 791 l0 740 -23 58
c-45 111 -133 195 -246 234 -48 17 -136 18 -1629 18 l-1579 0 -29 -33 c-16
-18 -29 -44 -29 -58 0 -37 25 -78 55 -92 20 -9 395 -12 1574 -12 l1549 0 53
-28 c43 -22 59 -38 81 -81 l28 -53 0 -698 0 -698 -28 -53 c-22 -43 -38 -59
-81 -81 l-53 -28 -262 0 -263 0 -51 79 c-128 196 -340 374 -562 472 -47 21
-84 41 -83 46 1 4 33 73 70 152 l69 145 88 -170 c48 -93 101 -181 117 -196 37
-35 87 -37 123 -5 34 29 286 558 286 598 0 41 -15 66 -50 84 -82 42 -112 13
-217 -204 l-84 -176 -90 175 c-49 96 -100 185 -115 198 -32 28 -83 29 -119 1
-17 -14 -56 -83 -107 -190 -45 -93 -84 -169 -88 -169 -4 0 -47 77 -95 170 -48
94 -99 179 -112 190 -63 49 -155 0 -155 -82 0 -23 35 -101 111 -246 61 -117
111 -215 111 -217 0 -1 -53 -1 -119 2 -121 6 -266 -7 -360 -32 -28 -7 -51 -12
-51 -10 0 2 47 101 105 221 123 253 133 281 116 322 -13 31 -58 62 -91 62 -57
0 -75 -24 -167 -211 l-88 -181 -94 182 c-72 138 -101 184 -122 196 -35 18 -63
18 -98 0 -27 -15 -41 -39 -158 -284 -25 -51 -46 -92 -48 -90 -1 2 -44 83 -95
181 -96 182 -116 207 -170 207 -50 0 -100 -51 -100 -102 0 -11 66 -149 146
-305 151 -293 165 -313 224 -313 63 0 79 24 217 319 25 52 38 70 43 60 4 -8
46 -87 92 -176 l85 -162 -81 -47 c-178 -103 -346 -259 -447 -414 l-52 -80
-803 0 -802 0 -53 28 c-43 22 -59 38 -81 81 l-28 53 0 698 0 698 28 53 c22 43
38 59 81 81 l53 28 235 0 c254 0 278 4 301 55 19 41 14 72 -17 107 l-29 33
-249 2 c-190 2 -260 -1 -300 -12z m3022 -1470 c375 -79 689 -356 811 -713 174
-509 -32 -1053 -501 -1321 -218 -125 -507 -169 -760 -116 -374 78 -689 356
-811 713 -221 647 182 1328 856 1446 106 19 295 15 405 -9z"/>
<path d="M2990 3154 c-218 -40 -375 -118 -510 -254 -115 -114 -194 -256 -236
-420 -26 -104 -26 -296 0 -400 84 -331 325 -572 656 -656 104 -26 296 -26 400
0 331 84 572 325 656 656 26 104 26 296 0 400 -83 326 -317 564 -641 652 -68
18 -271 32 -325 22z m315 -229 c115 -38 179 -78 271 -169 90 -91 130 -154 170
-271 24 -70 27 -95 27 -205 0 -110 -3 -135 -27 -205 -40 -117 -80 -180 -170
-271 -91 -90 -154 -130 -271 -170 -70 -24 -95 -27 -205 -27 -110 0 -135 3
-205 27 -117 40 -180 80 -271 170 -90 91 -130 154 -170 271 -24 70 -27 95 -27
205 0 110 3 135 27 205 40 117 80 180 170 271 109 108 219 167 366 195 80 15
227 3 315 -26z"/>
<path d="M3051 2716 c-47 -26 -63 -84 -36 -135 15 -31 47 -46 113 -55 113 -16
202 -105 218 -218 9 -66 24 -98 55 -113 75 -39 149 10 149 98 -1 101 -60 235
-137 308 -103 99 -286 157 -362 115z"/>
<path d="M1224 4831 c-30 -13 -64 -59 -64 -88 0 -106 149 -141 190 -44 32 78
-50 164 -126 132z"/>
<path d="M478 4124 c-34 -18 -48 -43 -48 -84 0 -40 269 -564 306 -597 32 -29
83 -30 119 -2 17 14 56 83 107 190 45 93 85 169 89 169 4 0 46 -76 94 -170 48
-95 98 -179 112 -190 37 -29 86 -26 122 8 37 35 282 543 284 589 1 45 -31 86
-77 98 -67 16 -81 1 -182 -203 l-92 -184 -91 176 c-51 97 -103 184 -118 196
-31 24 -80 26 -112 3 -15 -10 -58 -86 -111 -196 l-86 -181 -88 170 c-48 93
-100 181 -117 197 -33 30 -69 34 -111 11z"/>
</g>
</svg>
